{
  "accessors": [
    {
      "bufferView": 2,
      "componentType": 5126,
      "count": 1136,
      "max": [
        10.290423393249512,
        8.367756843566895,
        3.5391557216644287
      ],
      "min": [
        -9.094038009643555,
        -19.59741973876953,
        -1.9490960836410522
      ],
      "type": "VEC3"
    },
    {
      "bufferView": 2,
      "byteOffset": 13632,
      "componentType": 5126,
      "count": 1136,
      "max": [
        0.9993370771408081,
        0.9994503855705261,
        1.0
      ],
      "min": [
        -0.9994502663612366,
        -0.9993960857391357,
        -1.0
      ],
      "type": "VEC3"
    },
    {
      "bufferView": 3,
      "componentType": 5126,
      "count": 1136,
      "max": [
        0.9995663166046143,
        0.6557637453079224,
        1.0,
        1.0
      ],
      "min": [
        -0.999570369720459,
        -0.7795426845550537,
        -0.991952657699585,
        1.0
      ],
      "type": "VEC4"
    },
    {
      "bufferView": 1,
      "componentType": 5126,
      "count": 1136,
      "max": [
        0.9731457829475403,
        0.9959999918937683
      ],
      "min": [
        0.004776554182171822,
        0.007860062643885612
      ],
      "type": "VEC2"
    },
    {
      "bufferView": 1,
      "byteOffset": 9088,
      "componentType": 5126,
      "count": 1136,
      "max": [
        0.9731457829475403,
        0.9959999918937683
      ],
      "min": [
        0.004776554182171822,
        0.007860062643885612
      ],
      "type": "VEC2"
    },
    {
      "bufferView": 1,
      "byteOffset": 18176,
      "componentType": 5126,
      "count": 1136,
      "max": [
        0.9731457829475403,
        0.9959999918937683
      ],
      "min": [
        0.004776554182171822,
        0.007860062643885612
      ],
      "type": "VEC2"
    },
    {
      "bufferView": 0,
      "componentType": 5125,
      "count": 5244,
      "type": "SCALAR"
    }
  ],
  "asset": {
    "extras": {
      "author": "plaggy (https://sketchfab.com/plaggy)",
      "license": "CC-BY-4.0 (http://creativecommons.org/licenses/by/4.0/)",
      "source": "https://sketchfab.com/3d-models/cc0-tombstone-3990a38c91c5435f84bd2f8c05dfb189",
      "title": "CC0 - Tombstone"
    },
    "generator": "Sketchfab-15.49.0",
    "version": "2.0"
  },
  "bufferViews": [
    {
      "buffer": 0,
      "byteLength": 20976,
      "name": "floatBufferViews",
      "target": 34963
    },
    {
      "buffer": 0,
      "byteLength": 27264,
      "byteOffset": 20976,
      "byteStride": 8,
      "name": "floatBufferViews",
      "target": 34962
    },
    {
      "buffer": 0,
      "byteLength": 27264,
      "byteOffset": 48240,
      "byteStride": 12,
      "name": "floatBufferViews",
      "target": 34962
    },
    {
      "buffer": 0,
      "byteLength": 18176,
      "byteOffset": 75504,
      "byteStride": 16,
      "name": "floatBufferViews",
      "target": 34962
    }
  ],
  "buffers": [
    {
      "byteLength": 93680,
      "uri": "scene.bin"
    }
  ],
  "images": [
    {
      "uri": "textures/Tombstone_baseColor.png"
    },
    {
      "uri": "textures/Tombstone_metallicRoughness.png"
    },
    {
      "uri": "textures/Tombstone_normal.png"
    }
  ],
  "materials": [
    {
      "name": "Tombstone",
      "normalTexture": {
        "index": 2
      },
      "occlusionTexture": {
        "index": 1
      },
      "pbrMetallicRoughness": {
        "baseColorTexture": {
          "index": 0
        },
        "metallicRoughnessTexture": {
          "index": 1
        }
      }
    }
  ],
  "meshes": [
    {
      "name": "Tombstone_Tombstone_0",
      "primitives": [
        {
          "attributes": {
            "NORMAL": 1,
            "POSITION": 0,
            "TANGENT": 2,
            "TEXCOORD_0": 3,
            "TEXCOORD_1": 4,
            "TEXCOORD_2": 5
          },
          "indices": 6,
          "material": 0,
          "mode": 4
        }
      ]
    }
  ],
  "nodes": [
    {
      "children": [
        1
      ],
      "matrix": [
        1.0,
        0.0,
        0.0,
        0.0,
        0.0,
        2.220446049250313e-16,
        -1.0,
        0.0,
        0.0,
        1.0,
        2.220446049250313e-16,
        0.0,
        0.0,
        0.0,
        0.0,
        1.0
      ],
      "name": "Sketchfab_model"
    },
    {
      "children": [
        2
      ],
      "matrix": [
        0.02539999969303608,
        0.0,
        0.0,
        0.0,
        0.0,
        0.0,
        0.02539999969303608,
        0.0,
        0.0,
        -0.02539999969303608,
        0.0,
        0.0,
        0.0,
        0.0,
        0.0,
        1.0
      ],
      "name": "29c4a259f18c4aa1857b24137bd21be0.fbx"
    },
    {
      "children": [
        3
      ],
      "name": "RootNode"
    },
    {
      "children": [
        4
      ],
      "matrix": [
        0.9994502157377884,
        -0.033155184537086116,
        -2.030170470494516e-18,
        0.0,
        0.03315518453708567,
        0.9994502157377751,
        1.6292068516495678e-07,
        0.0,
        -5.401665379523596e-09,
        -1.6283111393633166e-07,
        0.9999999999999867,
        0.0,
        0.0,
        0.0,
        0.0,
        1.0
      ],
      "name": "Tombstone"
    },
    {
      "children": [
        5
      ],
      "matrix": [
        1.0,
        0.0,
        -0.0,
        0.0,
        0.0,
        1.0,
        0.0,
        0.0,
        0.0,
        0.0,
        1.0,
        0.0,
        -0.5981926918029785,
        5.61483097076416,
        -0.795029878616333,
        1.0
      ],
      "name": "Object_4"
    },
    {
      "mesh": 0,
      "name": "Tombstone_Tombstone_0"
    }
  ],
  "samplers": [
    {
      "magFilter": 9729,
      "minFilter": 9987,
      "wrapS": 10497,
      "wrapT": 10497
    }
  ],
  "scene": 0,
  "scenes": [
    {
      "name": "Sketchfab_Scene",
      "nodes": [
        0
      ]
    }
  ],
  "textures": [
    {
      "sampler": 0,
      "source": 0
    },
    {
      "sampler": 0,
      "source": 1
    },
    {
      "sampler": 0,
      "source": 2
    }
  ]
}
